<svg width="149" height="34" viewBox="0 0 149 34" fill="none" xmlns="http://www.w3.org/2000/svg">
<path d="M8.89922 13.7998L5.69922 16.9998L8.89922 20.1998C9.59922 19.2998 10.0992 18.1998 10.0992 16.9998C9.99922 15.6998 9.59922 14.5998 8.89922 13.7998Z" fill="#105EAE"/>
<path d="M25.1004 13.7002C24.4004 14.6002 23.9004 15.7002 23.9004 16.9002C23.9004 18.1002 24.4004 19.3002 25.1004 20.2002L28.3004 17.0002L25.1004 13.7002Z" fill="#105EAE"/>
<path d="M20.2008 8.9002L17.0008 5.7002L13.8008 8.9002C14.7008 9.6002 15.8008 10.1002 17.0008 10.1002C18.2008 10.1002 19.3008 9.6002 20.2008 8.9002Z" fill="#105EAE"/>
<path d="M21.8992 16.9998C21.8992 15.1998 22.5992 13.5998 23.5992 12.3998L21.5992 10.3998C20.3992 11.3998 18.7992 11.9998 16.9992 11.9998C15.1992 11.9998 13.5992 11.2998 12.3992 10.2998L10.2992 12.3998C11.3992 13.5998 11.9992 15.1998 11.9992 16.9998C11.9992 18.7998 11.2992 20.3998 10.1992 21.6998L12.2992 23.7998C13.4992 22.6998 15.1992 22.0998 16.8992 22.0998C18.5992 22.0998 20.2992 22.7998 21.4992 23.7998L23.5992 21.6998C22.5992 20.3998 21.8992 18.7998 21.8992 16.9998Z" fill="#105EAE"/>
<path d="M13.8008 25.0999L17.0008 28.2999L20.2008 25.0999C19.3008 24.3999 18.2008 23.8999 17.0008 23.8999C15.8008 23.8999 14.6008 24.3999 13.8008 25.0999Z" fill="#105EAE"/>
<path d="M29.1004 23.9999C29.0004 23.9999 29.0004 23.9999 28.9004 23.9999C27.5004 23.9999 26.3004 23.5999 25.2004 22.8999L22.9004 25.1999C23.6004 26.2999 24.0004 27.5999 24.0004 28.9999V29.0999L29.1004 23.9999Z" fill="#105EAE"/>
<path d="M29.0004 9.8999L24.0004 4.8999C24.0004 4.9999 24.0004 4.9999 24.0004 4.9999C24.0004 6.3999 23.6004 7.6999 22.9004 8.7999L25.2004 11.0999C26.3004 10.2999 27.6004 9.8999 29.0004 9.8999Z" fill="#105EAE"/>
<path d="M28.8996 11.8999C28.0996 11.8999 27.2996 12.0999 26.5996 12.4999L31.0996 16.9999L26.5996 21.4999C27.2996 21.7999 27.9996 21.9999 28.7996 21.9999C31.5996 21.9999 33.7996 19.6999 33.7996 16.9999C33.7996 14.2999 31.6996 11.8999 28.8996 11.8999Z" fill="#105EAE"/>
<path d="M10.0004 28.9999C10.0004 27.5999 10.4004 26.2999 11.1004 25.1999L8.80039 22.8999C7.70039 23.5999 6.40039 23.9999 5.00039 23.9999H4.90039L10.0004 28.9999Z" fill="#105EAE"/>
<path d="M22 29C22 28.2 21.8 27.4 21.4 26.7L17 31.2L12.5 26.7C12.2 27.4 12 28.1 12 29C12 31.8 14.3 34 17 34C19.7 34 22 31.7 22 29Z" fill="#105EAE"/>
<path d="M5 22C5.8 22 6.6 21.8 7.3 21.5L2.8 17L7.3 12.5C6.6 12.1 5.8 11.9 5 11.9C3.7 11.9 2.6 12.4 1.7 13.1L1.4 13.4C0.6 14.3 0 15.6 0 17C0 19.7 2.3 22 5 22Z" fill="#105EAE"/>
<path d="M12 5C12 5.8 12.2 6.6 12.6 7.3L17 2.8L21.5 7.3C21.8 6.6 22 5.8 22 5C22 2.2 19.7 0 17 0C14.3 0 12 2.3 12 5Z" fill="#105EAE"/>
<path d="M5 9.90002C6.5 9.90002 7.7 10.3 8.8 11L11.1 8.70002C10.4 7.70002 10 6.40002 10 5.00002V4.90002L5 9.90002Z" fill="#105EAE"/>
<path d="M54.3862 5L66.6903 28.1357H61.382L59.6024 24.6991H49.1393L47.421 28.1357H42.082L54.3862 5ZM57.2704 20.5567L54.3862 14.6961L51.5326 20.5567H57.2704ZM85.1004 28.1357H68.4699V5.70573H73.3486V23.932H85.1004V28.1357ZM93.8146 28.688L82.4923 5.73641H87.8313L93.8146 18.1327L99.8286 5.73641H105.198L93.8146 28.688ZM112.562 14.9109H123.302V19.1453H112.562V23.932H124.713V28.1357H107.714V5.70573H124.713V9.90943H112.562V14.9109ZM129.223 28.1357V5.70573H139.196C140.791 5.70573 142.203 6.03303 143.43 6.68762C144.657 7.34221 145.608 8.26272 146.284 9.44917C146.959 10.6356 147.296 11.9857 147.296 13.4994C147.296 15.1155 146.887 16.5576 146.069 17.8259C145.251 19.0941 144.136 20.0249 142.724 20.6181C144.177 22.4592 146.11 24.965 148.523 28.1357H142.724C141.415 26.4992 139.625 24.1672 137.355 21.1397H134.041V28.1357H129.223ZM139.196 16.936C140.034 16.936 140.791 16.6343 141.466 16.0309C142.141 15.4274 142.479 14.5836 142.479 13.4994C142.479 12.6198 142.244 11.8016 141.773 11.0447C141.303 10.2879 140.443 9.90943 139.196 9.90943H134.041V16.936H139.196Z" fill="#105EAE"/>
</svg>
